<svg xmlns="http://www.w3.org/2000/svg" width="100" height="100"><defs><clipPath id="mask-1"><path d="M 226 723 Q 251 699 277 672 Q 292 656 310 657 Q 323 658 328 673 Q 334 689 324 724 Q 318 743 287 758 Q 209 788 196 779 Q 190 775 192 760 Q 196 747 226 723 Z"></path></clipPath><clipPath id="mask-2"><path d="M 128 533 Q 176 478 215 457 Q 231 454 242 469 Q 249 482 247 502 Q 235 550 145 575 Q 144 576 143 576 Q 124 580 114 577 Q 107 576 109 562 Q 110 549 128 533 Z"></path></clipPath><clipPath id="mask-3"><path d="M 130 145 Q 117 141 121 123 Q 143 44 177 30 Q 184 23 195 26 Q 202 29 203 55 Q 204 94 287 359 Q 293 375 292 382 Q 291 392 281 385 Q 269 376 167 189 Q 157 167 130 145 Z"></path></clipPath><clipPath id="mask-4"><path d="M 683 712 Q 744 722 798 728 Q 808 727 817 739 Q 818 749 796 760 Q 766 782 693 758 L 633 743 Q 624 743 525 721 L 477 715 Q 429 712 376 703 Q 349 700 370 683 Q 398 659 438 668 Q 459 674 485 677 L 526 685 Q 572 695 631 704 L 683 712 Z"></path></clipPath><clipPath id="mask-5"><path d="M 525 721 Q 525 787 521 791 Q 520 792 519 792 Q 506 802 481 809 Q 462 813 445 804 Q 436 797 449 785 Q 465 761 477 715 L 485 677 Q 501 575 509 560 Q 516 551 522 558 Q 525 562 528 572 L 530 610 Q 529 625 528 638 Q 527 663 526 685 L 525 721 Z"></path></clipPath><clipPath id="mask-6"><path d="M 664 635 Q 673 675 683 712 L 693 758 Q 694 762 696 767 Q 696 771 713 811 Q 717 820 701 836 Q 671 857 650 864 Q 637 868 628 862 Q 621 856 626 842 Q 636 823 636 809 Q 635 778 633 743 L 631 704 Q 627 670 623 633 C 620 603 657 606 664 635 Z"></path></clipPath><clipPath id="mask-7"><path d="M 581 586 Q 615 593 685 599 Q 695 600 696 609 Q 697 616 668 634 Q 667 635 664 635 L 623 633 Q 571 618 530 610 C 478 600 506 571 581 586 Z"></path></clipPath><clipPath id="mask-8"><path d="M 435 498 Q 431 507 385 511 Q 373 514 371 508 Q 365 502 374 488 Q 399 446 418 376 Q 422 355 436 342 Q 454 323 458 337 Q 459 344 460 355 L 456 385 Q 444 440 441 466 L 435 498 Z"></path></clipPath><clipPath id="mask-9"><path d="M 767 433 Q 788 475 813 488 Q 831 504 817 522 Q 802 535 753 562 Q 737 569 715 563 Q 666 544 618 531 L 559 517 Q 498 507 435 498 C 405 494 412 459 441 466 Q 448 467 459 471 Q 508 481 560 491 L 613 501 Q 649 508 685 516 Q 713 523 726 511 Q 732 505 729 492 Q 722 461 713 435 C 704 406 753 407 767 433 Z"></path></clipPath><clipPath id="mask-10"><path d="M 610 379 Q 682 391 780 400 Q 790 401 792 409 Q 792 416 767 433 C 752 444 742 441 713 435 Q 658 423 610 412 L 562 402 Q 505 393 456 385 C 426 380 430 355 460 355 Q 466 354 476 356 Q 510 365 561 372 L 610 379 Z"></path></clipPath><clipPath id="mask-11"><path d="M 604 282 Q 668 294 725 302 Q 750 306 741 320 Q 731 336 703 341 Q 667 345 607 325 L 558 314 Q 494 301 436 286 Q 418 282 440 266 Q 452 257 555 274 L 604 282 Z"></path></clipPath><clipPath id="mask-12"><path d="M 623 185 Q 708 195 831 197 Q 892 194 900 206 Q 904 216 888 230 Q 837 266 801 258 Q 725 240 594 219 L 545 211 Q 436 195 312 178 Q 291 175 307 159 Q 320 146 338 141 Q 359 137 374 141 Q 447 162 530 172 L 586 181 L 588 181 L 623 185 Z"></path></clipPath><clipPath id="mask-13"><path d="M 594 219 Q 600 250 604 282 L 607 325 Q 608 353 610 379 L 610 412 Q 610 437 610 459 Q 610 480 613 501 L 618 531 Q 619 538 623 547 Q 627 559 619 565 Q 604 577 581 586 C 554 599 509 595 528 572 Q 555 545 559 517 L 560 491 Q 561 445 562 402 L 561 372 Q 560 342 558 314 L 555 274 Q 554 267 553 257 Q 552 233 545 211 L 530 172 Q 482 97 402 57 Q 368 41 318 20 Q 306 16 302 13 Q 298 9 312 5 Q 405 -1 524 80 Q 539 92 551 106 Q 575 137 586 181 L 594 219 Z"></path></clipPath><clipPath id="mask-14"><path d="M 588 181 Q 589 180 591 178 Q 720 13 757 2 Q 808 -16 932 8 Q 951 9 953 15 Q 954 22 940 28 Q 760 86 698 130 Q 653 158 623 185 C 600 205 569 204 588 181 Z"></path></clipPath><clipPath id="mask-15"><path d="M 226 723 Q 251 699 277 672 Q 292 656 310 657 Q 323 658 328 673 Q 334 689 324 724 Q 318 743 287 758 Q 209 788 196 779 Q 190 775 192 760 Q 196 747 226 723 Z"></path></clipPath><clipPath id="mask-16"><path d="M 128 533 Q 176 478 215 457 Q 231 454 242 469 Q 249 482 247 502 Q 235 550 145 575 Q 144 576 143 576 Q 124 580 114 577 Q 107 576 109 562 Q 110 549 128 533 Z"></path></clipPath><clipPath id="mask-17"><path d="M 130 145 Q 117 141 121 123 Q 143 44 177 30 Q 184 23 195 26 Q 202 29 203 55 Q 204 94 287 359 Q 293 375 292 382 Q 291 392 281 385 Q 269 376 167 189 Q 157 167 130 145 Z"></path></clipPath><clipPath id="mask-18"><path d="M 683 712 Q 744 722 798 728 Q 808 727 817 739 Q 818 749 796 760 Q 766 782 693 758 L 633 743 Q 624 743 525 721 L 477 715 Q 429 712 376 703 Q 349 700 370 683 Q 398 659 438 668 Q 459 674 485 677 L 526 685 Q 572 695 631 704 L 683 712 Z"></path></clipPath><clipPath id="mask-19"><path d="M 525 721 Q 525 787 521 791 Q 520 792 519 792 Q 506 802 481 809 Q 462 813 445 804 Q 436 797 449 785 Q 465 761 477 715 L 485 677 Q 501 575 509 560 Q 516 551 522 558 Q 525 562 528 572 L 530 610 Q 529 625 528 638 Q 527 663 526 685 L 525 721 Z"></path></clipPath><clipPath id="mask-20"><path d="M 664 635 Q 673 675 683 712 L 693 758 Q 694 762 696 767 Q 696 771 713 811 Q 717 820 701 836 Q 671 857 650 864 Q 637 868 628 862 Q 621 856 626 842 Q 636 823 636 809 Q 635 778 633 743 L 631 704 Q 627 670 623 633 C 620 603 657 606 664 635 Z"></path></clipPath><clipPath id="mask-21"><path d="M 581 586 Q 615 593 685 599 Q 695 600 696 609 Q 697 616 668 634 Q 667 635 664 635 L 623 633 Q 571 618 530 610 C 478 600 506 571 581 586 Z"></path></clipPath><clipPath id="mask-22"><path d="M 435 498 Q 431 507 385 511 Q 373 514 371 508 Q 365 502 374 488 Q 399 446 418 376 Q 422 355 436 342 Q 454 323 458 337 Q 459 344 460 355 L 456 385 Q 444 440 441 466 L 435 498 Z"></path></clipPath><clipPath id="mask-23"><path d="M 767 433 Q 788 475 813 488 Q 831 504 817 522 Q 802 535 753 562 Q 737 569 715 563 Q 666 544 618 531 L 559 517 Q 498 507 435 498 C 405 494 412 459 441 466 Q 448 467 459 471 Q 508 481 560 491 L 613 501 Q 649 508 685 516 Q 713 523 726 511 Q 732 505 729 492 Q 722 461 713 435 C 704 406 753 407 767 433 Z"></path></clipPath><clipPath id="mask-24"><path d="M 610 379 Q 682 391 780 400 Q 790 401 792 409 Q 792 416 767 433 C 752 444 742 441 713 435 Q 658 423 610 412 L 562 402 Q 505 393 456 385 C 426 380 430 355 460 355 Q 466 354 476 356 Q 510 365 561 372 L 610 379 Z"></path></clipPath><clipPath id="mask-25"><path d="M 604 282 Q 668 294 725 302 Q 750 306 741 320 Q 731 336 703 341 Q 667 345 607 325 L 558 314 Q 494 301 436 286 Q 418 282 440 266 Q 452 257 555 274 L 604 282 Z"></path></clipPath><clipPath id="mask-26"><path d="M 623 185 Q 708 195 831 197 Q 892 194 900 206 Q 904 216 888 230 Q 837 266 801 258 Q 725 240 594 219 L 545 211 Q 436 195 312 178 Q 291 175 307 159 Q 320 146 338 141 Q 359 137 374 141 Q 447 162 530 172 L 586 181 L 588 181 L 623 185 Z"></path></clipPath><clipPath id="mask-27"><path d="M 594 219 Q 600 250 604 282 L 607 325 Q 608 353 610 379 L 610 412 Q 610 437 610 459 Q 610 480 613 501 L 618 531 Q 619 538 623 547 Q 627 559 619 565 Q 604 577 581 586 C 554 599 509 595 528 572 Q 555 545 559 517 L 560 491 Q 561 445 562 402 L 561 372 Q 560 342 558 314 L 555 274 Q 554 267 553 257 Q 552 233 545 211 L 530 172 Q 482 97 402 57 Q 368 41 318 20 Q 306 16 302 13 Q 298 9 312 5 Q 405 -1 524 80 Q 539 92 551 106 Q 575 137 586 181 L 594 219 Z"></path></clipPath><clipPath id="mask-28"><path d="M 588 181 Q 589 180 591 178 Q 720 13 757 2 Q 808 -16 932 8 Q 951 9 953 15 Q 954 22 940 28 Q 760 86 698 130 Q 653 158 623 185 C 600 205 569 204 588 181 Z"></path></clipPath><clipPath id="mask-29"><path d="M 226 723 Q 251 699 277 672 Q 292 656 310 657 Q 323 658 328 673 Q 334 689 324 724 Q 318 743 287 758 Q 209 788 196 779 Q 190 775 192 760 Q 196 747 226 723 Z"></path></clipPath><clipPath id="mask-30"><path d="M 128 533 Q 176 478 215 457 Q 231 454 242 469 Q 249 482 247 502 Q 235 550 145 575 Q 144 576 143 576 Q 124 580 114 577 Q 107 576 109 562 Q 110 549 128 533 Z"></path></clipPath><clipPath id="mask-31"><path d="M 130 145 Q 117 141 121 123 Q 143 44 177 30 Q 184 23 195 26 Q 202 29 203 55 Q 204 94 287 359 Q 293 375 292 382 Q 291 392 281 385 Q 269 376 167 189 Q 157 167 130 145 Z"></path></clipPath><clipPath id="mask-32"><path d="M 683 712 Q 744 722 798 728 Q 808 727 817 739 Q 818 749 796 760 Q 766 782 693 758 L 633 743 Q 624 743 525 721 L 477 715 Q 429 712 376 703 Q 349 700 370 683 Q 398 659 438 668 Q 459 674 485 677 L 526 685 Q 572 695 631 704 L 683 712 Z"></path></clipPath><clipPath id="mask-33"><path d="M 525 721 Q 525 787 521 791 Q 520 792 519 792 Q 506 802 481 809 Q 462 813 445 804 Q 436 797 449 785 Q 465 761 477 715 L 485 677 Q 501 575 509 560 Q 516 551 522 558 Q 525 562 528 572 L 530 610 Q 529 625 528 638 Q 527 663 526 685 L 525 721 Z"></path></clipPath><clipPath id="mask-34"><path d="M 664 635 Q 673 675 683 712 L 693 758 Q 694 762 696 767 Q 696 771 713 811 Q 717 820 701 836 Q 671 857 650 864 Q 637 868 628 862 Q 621 856 626 842 Q 636 823 636 809 Q 635 778 633 743 L 631 704 Q 627 670 623 633 C 620 603 657 606 664 635 Z"></path></clipPath><clipPath id="mask-35"><path d="M 581 586 Q 615 593 685 599 Q 695 600 696 609 Q 697 616 668 634 Q 667 635 664 635 L 623 633 Q 571 618 530 610 C 478 600 506 571 581 586 Z"></path></clipPath><clipPath id="mask-36"><path d="M 435 498 Q 431 507 385 511 Q 373 514 371 508 Q 365 502 374 488 Q 399 446 418 376 Q 422 355 436 342 Q 454 323 458 337 Q 459 344 460 355 L 456 385 Q 444 440 441 466 L 435 498 Z"></path></clipPath><clipPath id="mask-37"><path d="M 767 433 Q 788 475 813 488 Q 831 504 817 522 Q 802 535 753 562 Q 737 569 715 563 Q 666 544 618 531 L 559 517 Q 498 507 435 498 C 405 494 412 459 441 466 Q 448 467 459 471 Q 508 481 560 491 L 613 501 Q 649 508 685 516 Q 713 523 726 511 Q 732 505 729 492 Q 722 461 713 435 C 704 406 753 407 767 433 Z"></path></clipPath><clipPath id="mask-38"><path d="M 610 379 Q 682 391 780 400 Q 790 401 792 409 Q 792 416 767 433 C 752 444 742 441 713 435 Q 658 423 610 412 L 562 402 Q 505 393 456 385 C 426 380 430 355 460 355 Q 466 354 476 356 Q 510 365 561 372 L 610 379 Z"></path></clipPath><clipPath id="mask-39"><path d="M 604 282 Q 668 294 725 302 Q 750 306 741 320 Q 731 336 703 341 Q 667 345 607 325 L 558 314 Q 494 301 436 286 Q 418 282 440 266 Q 452 257 555 274 L 604 282 Z"></path></clipPath><clipPath id="mask-40"><path d="M 623 185 Q 708 195 831 197 Q 892 194 900 206 Q 904 216 888 230 Q 837 266 801 258 Q 725 240 594 219 L 545 211 Q 436 195 312 178 Q 291 175 307 159 Q 320 146 338 141 Q 359 137 374 141 Q 447 162 530 172 L 586 181 L 588 181 L 623 185 Z"></path></clipPath><clipPath id="mask-41"><path d="M 594 219 Q 600 250 604 282 L 607 325 Q 608 353 610 379 L 610 412 Q 610 437 610 459 Q 610 480 613 501 L 618 531 Q 619 538 623 547 Q 627 559 619 565 Q 604 577 581 586 C 554 599 509 595 528 572 Q 555 545 559 517 L 560 491 Q 561 445 562 402 L 561 372 Q 560 342 558 314 L 555 274 Q 554 267 553 257 Q 552 233 545 211 L 530 172 Q 482 97 402 57 Q 368 41 318 20 Q 306 16 302 13 Q 298 9 312 5 Q 405 -1 524 80 Q 539 92 551 106 Q 575 137 586 181 L 594 219 Z"></path></clipPath><clipPath id="mask-42"><path d="M 588 181 Q 589 180 591 178 Q 720 13 757 2 Q 808 -16 932 8 Q 951 9 953 15 Q 954 22 940 28 Q 760 86 698 130 Q 653 158 623 185 C 600 205 569 204 588 181 Z"></path></clipPath></defs><g transform="translate(5, 84.1015625) scale(0.087890625, -0.087890625)"><g style="opacity: 1;"><path clip-path="url(#mask-1)" d="M 118.5 826 L 284 717 L 308 677" stroke="rgba(221,221,221,1)" stroke-width="200" fill="none" stroke-linecap="round" stroke-linejoin="miter" stroke-dasharray="244.831116827831,244.831116827831" style="opacity: 1; stroke-dashoffset: 0;"></path><path clip-path="url(#mask-2)" d="M 38.8 622.9 L 199 512 L 215 495 L 220 478" stroke="rgba(221,221,221,1)" stroke-width="200" fill="none" stroke-linecap="round" stroke-linejoin="miter" stroke-dasharray="235.93361001157822,235.93361001157822" style="opacity: 1; stroke-dashoffset: 0;"></path><path clip-path="url(#mask-3)" d="M 232.3 -54.6 L 176 66 L 169 119 L 285 379" stroke="rgba(221,221,221,1)" stroke-width="200" fill="none" stroke-linecap="round" stroke-linejoin="miter" stroke-dasharray="471.26951072137626,471.26951072137626" style="opacity: 1; stroke-dashoffset: 0;"></path><path clip-path="url(#mask-4)" d="M 275 722 L 395 687 L 427 688 L 727 744 L 766 748 L 807 741" stroke="rgba(221,221,221,1)" stroke-width="200" fill="none" stroke-linecap="round" stroke-linejoin="miter" stroke-dasharray="542.9953944045601,542.9953944045601" style="opacity: 1; stroke-dashoffset: 0;"></path><path clip-path="url(#mask-5)" d="M 360.2 833.1 L 473 788 L 492 771 L 517 566" stroke="rgba(221,221,221,1)" stroke-width="200" fill="none" stroke-linecap="round" stroke-linejoin="miter" stroke-dasharray="353.55452107713575,353.55452107713575" style="opacity: 1; stroke-dashoffset: 0;"></path><path clip-path="url(#mask-6)" d="M 571.9 928.9 L 673 811 L 647 656 L 630 640" stroke="rgba(221,221,221,1)" stroke-width="200" fill="none" stroke-linecap="round" stroke-linejoin="miter" stroke-dasharray="335.8280196502468,335.8280196502468" style="opacity: 1; stroke-dashoffset: 0;"></path><path clip-path="url(#mask-7)" d="M 469.4 500.8 L 547 595 L 602 609 L 667 616 L 687 608" stroke="rgba(221,221,221,1)" stroke-width="200" fill="none" stroke-linecap="round" stroke-linejoin="miter" stroke-dasharray="265.6930657834587,265.6930657834587" style="opacity: 1; stroke-dashoffset: 0;"></path><path clip-path="url(#mask-8)" d="M 300.9 562.2 L 411 477 L 448 342" stroke="rgba(221,221,221,1)" stroke-width="200" fill="none" stroke-linecap="round" stroke-linejoin="miter" stroke-dasharray="279.183161356204,279.183161356204" style="opacity: 1; stroke-dashoffset: 0;"></path><path clip-path="url(#mask-9)" d="M 391.6 386.8 L 452 485 L 726 540 L 748 532 L 770 506 L 748 459 L 720 440" stroke="rgba(221,221,221,1)" stroke-width="200" fill="none" stroke-linecap="round" stroke-linejoin="miter" stroke-dasharray="537.9300430730423,537.9300430730423" style="opacity: 1; stroke-dashoffset: 0;"></path><path clip-path="url(#mask-10)" d="M 389.7 296.1 L 474 372 L 509 380 L 709 414 L 765 416 L 783 408" stroke="rgba(221,221,221,1)" stroke-width="200" fill="none" stroke-linecap="round" stroke-linejoin="miter" stroke-dasharray="427.95910482490103,427.95910482490103" style="opacity: 1; stroke-dashoffset: 0;"></path><path clip-path="url(#mask-11)" d="M 338.6 264.8 L 518 285 L 665 317 L 706 320 L 730 314" stroke="rgba(221,221,221,1)" stroke-width="200" fill="none" stroke-linecap="round" stroke-linejoin="miter" stroke-dasharray="396.79558170059755,396.79558170059755" style="opacity: 1; stroke-dashoffset: 0;"></path><path clip-path="url(#mask-12)" d="M 210.6 178.8 L 365 162 L 511 189 L 811 228 L 892 211" stroke="rgba(221,221,221,1)" stroke-width="200" fill="none" stroke-linecap="round" stroke-linejoin="miter" stroke-dasharray="689.0909979625375,689.0909979625375" style="opacity: 1; stroke-dashoffset: 0;"></path><path clip-path="url(#mask-13)" d="M 438.5 589 L 567 560 L 587 542 L 580 277 L 571 217 L 556 168 L 533 127 L 512 104 L 460 66 L 367 24 L 308 10" stroke="rgba(221,221,221,1)" stroke-width="200" fill="none" stroke-linecap="round" stroke-linejoin="miter" stroke-dasharray="840.9387478211779,840.9387478211779" style="opacity: 1; stroke-dashoffset: 0;"></path><path clip-path="url(#mask-14)" d="M 501 169 L 619 169 L 689 101 L 774 42 L 811 32 L 947 16" stroke="rgba(221,221,221,1)" stroke-width="200" fill="none" stroke-linecap="round" stroke-linejoin="miter" stroke-dasharray="494.32626349049264,494.32626349049264" style="opacity: 1; stroke-dashoffset: 0;"></path></g><g style="opacity: 1;"><path clip-path="url(#mask-15)" d="M 118.5 826 L 284 717 L 308 677" stroke="rgba(255,0,0,1)" stroke-width="200" fill="none" stroke-linecap="round" stroke-linejoin="miter" stroke-dasharray="244.831116827831,244.831116827831" style="opacity: 1; stroke-dashoffset: 0;"></path><path clip-path="url(#mask-16)" d="M 38.8 622.9 L 199 512 L 215 495 L 220 478" stroke="rgba(255,0,0,1)" stroke-width="200" fill="none" stroke-linecap="round" stroke-linejoin="miter" stroke-dasharray="235.93361001157822,235.93361001157822" style="opacity: 1; stroke-dashoffset: 0;"></path><path clip-path="url(#mask-17)" d="M 232.3 -54.6 L 176 66 L 169 119 L 285 379" stroke="rgba(255,0,0,1)" stroke-width="200" fill="none" stroke-linecap="round" stroke-linejoin="miter" stroke-dasharray="471.26951072137626,471.26951072137626" style="opacity: 1; stroke-dashoffset: 0;"></path><path clip-path="url(#mask-18)" d="M 275 722 L 395 687 L 427 688 L 727 744 L 766 748 L 807 741" stroke="rgba(85,85,85,1)" stroke-width="200" fill="none" stroke-linecap="round" stroke-linejoin="miter" stroke-dasharray="542.9953944045601,542.9953944045601" style="opacity: 1; stroke-dashoffset: 0;"></path><path clip-path="url(#mask-19)" d="M 360.2 833.1 L 473 788 L 492 771 L 517 566" stroke="rgba(85,85,85,1)" stroke-width="200" fill="none" stroke-linecap="round" stroke-linejoin="miter" stroke-dasharray="353.55452107713575,353.55452107713575" style="opacity: 1; stroke-dashoffset: 0;"></path><path clip-path="url(#mask-20)" d="M 571.9 928.9 L 673 811 L 647 656 L 630 640" stroke="rgba(85,85,85,1)" stroke-width="200" fill="none" stroke-linecap="round" stroke-linejoin="miter" stroke-dasharray="335.8280196502468,335.8280196502468" style="opacity: 1; stroke-dashoffset: 0;"></path><path clip-path="url(#mask-21)" d="M 469.4 500.8 L 547 595 L 602 609 L 667 616 L 687 608" stroke="rgba(85,85,85,1)" stroke-width="200" fill="none" stroke-linecap="round" stroke-linejoin="miter" stroke-dasharray="265.6930657834587,265.6930657834587" style="opacity: 1; stroke-dashoffset: 0;"></path><path clip-path="url(#mask-22)" d="M 300.9 562.2 L 411 477 L 448 342" stroke="rgba(85,85,85,1)" stroke-width="200" fill="none" stroke-linecap="round" stroke-linejoin="miter" stroke-dasharray="279.183161356204,279.183161356204" style="opacity: 1; stroke-dashoffset: 0;"></path><path clip-path="url(#mask-23)" d="M 391.6 386.8 L 452 485 L 726 540 L 748 532 L 770 506 L 748 459 L 720 440" stroke="rgba(85,85,85,1)" stroke-width="200" fill="none" stroke-linecap="round" stroke-linejoin="miter" stroke-dasharray="537.9300430730423,537.9300430730423" style="opacity: 1; stroke-dashoffset: 0;"></path><path clip-path="url(#mask-24)" d="M 389.7 296.1 L 474 372 L 509 380 L 709 414 L 765 416 L 783 408" stroke="rgba(85,85,85,1)" stroke-width="200" fill="none" stroke-linecap="round" stroke-linejoin="miter" stroke-dasharray="427.95910482490103,427.95910482490103" style="opacity: 1; stroke-dashoffset: 0;"></path><path clip-path="url(#mask-25)" d="M 338.6 264.8 L 518 285 L 665 317 L 706 320 L 730 314" stroke="rgba(85,85,85,1)" stroke-width="200" fill="none" stroke-linecap="round" stroke-linejoin="miter" stroke-dasharray="396.79558170059755,396.79558170059755" style="opacity: 1; stroke-dashoffset: 0;"></path><path clip-path="url(#mask-26)" d="M 210.6 178.8 L 365 162 L 511 189 L 811 228 L 892 211" stroke="rgba(85,85,85,1)" stroke-width="200" fill="none" stroke-linecap="round" stroke-linejoin="miter" stroke-dasharray="689.0909979625375,689.0909979625375" style="opacity: 1; stroke-dashoffset: 0;"></path><path clip-path="url(#mask-27)" d="M 438.5 589 L 567 560 L 587 542 L 580 277 L 571 217 L 556 168 L 533 127 L 512 104 L 460 66 L 367 24 L 308 10" stroke="rgba(85,85,85,1)" stroke-width="200" fill="none" stroke-linecap="round" stroke-linejoin="miter" stroke-dasharray="840.9387478211779,840.9387478211779" style="opacity: 1; stroke-dashoffset: 0;"></path><path clip-path="url(#mask-28)" d="M 501 169 L 619 169 L 689 101 L 774 42 L 811 32 L 947 16" stroke="rgba(85,85,85,1)" stroke-width="200" fill="none" stroke-linecap="round" stroke-linejoin="miter" stroke-dasharray="494.32626349049264,494.32626349049264" style="opacity: 1; stroke-dashoffset: 0;"></path></g><g style="opacity: 1;"><path clip-path="url(#mask-29)" d="M 118.5 826 L 284 717 L 308 677" stroke="rgba(170,170,255,1)" stroke-width="200" fill="none" stroke-linecap="round" stroke-linejoin="miter" stroke-dasharray="244.831116827831,244.831116827831" style="opacity: 0; stroke-dashoffset: 0;"></path><path clip-path="url(#mask-30)" d="M 38.8 622.9 L 199 512 L 215 495 L 220 478" stroke="rgba(170,170,255,1)" stroke-width="200" fill="none" stroke-linecap="round" stroke-linejoin="miter" stroke-dasharray="235.93361001157822,235.93361001157822" style="opacity: 0; stroke-dashoffset: 0;"></path><path clip-path="url(#mask-31)" d="M 232.3 -54.6 L 176 66 L 169 119 L 285 379" stroke="rgba(170,170,255,1)" stroke-width="200" fill="none" stroke-linecap="round" stroke-linejoin="miter" stroke-dasharray="471.26951072137626,471.26951072137626" style="opacity: 0; stroke-dashoffset: 0;"></path><path clip-path="url(#mask-32)" d="M 275 722 L 395 687 L 427 688 L 727 744 L 766 748 L 807 741" stroke="rgba(170,170,255,1)" stroke-width="200" fill="none" stroke-linecap="round" stroke-linejoin="miter" stroke-dasharray="542.9953944045601,542.9953944045601" style="opacity: 0; stroke-dashoffset: 0;"></path><path clip-path="url(#mask-33)" d="M 360.2 833.1 L 473 788 L 492 771 L 517 566" stroke="rgba(170,170,255,1)" stroke-width="200" fill="none" stroke-linecap="round" stroke-linejoin="miter" stroke-dasharray="353.55452107713575,353.55452107713575" style="opacity: 0; stroke-dashoffset: 0;"></path><path clip-path="url(#mask-34)" d="M 571.9 928.9 L 673 811 L 647 656 L 630 640" stroke="rgba(170,170,255,1)" stroke-width="200" fill="none" stroke-linecap="round" stroke-linejoin="miter" stroke-dasharray="335.8280196502468,335.8280196502468" style="opacity: 0; stroke-dashoffset: 0;"></path><path clip-path="url(#mask-35)" d="M 469.4 500.8 L 547 595 L 602 609 L 667 616 L 687 608" stroke="rgba(170,170,255,1)" stroke-width="200" fill="none" stroke-linecap="round" stroke-linejoin="miter" stroke-dasharray="265.6930657834587,265.6930657834587" style="opacity: 0; stroke-dashoffset: 0;"></path><path clip-path="url(#mask-36)" d="M 300.9 562.2 L 411 477 L 448 342" stroke="rgba(170,170,255,1)" stroke-width="200" fill="none" stroke-linecap="round" stroke-linejoin="miter" stroke-dasharray="279.183161356204,279.183161356204" style="opacity: 0; stroke-dashoffset: 0;"></path><path clip-path="url(#mask-37)" d="M 391.6 386.8 L 452 485 L 726 540 L 748 532 L 770 506 L 748 459 L 720 440" stroke="rgba(170,170,255,1)" stroke-width="200" fill="none" stroke-linecap="round" stroke-linejoin="miter" stroke-dasharray="537.9300430730423,537.9300430730423" style="opacity: 0; stroke-dashoffset: 0;"></path><path clip-path="url(#mask-38)" d="M 389.7 296.1 L 474 372 L 509 380 L 709 414 L 765 416 L 783 408" stroke="rgba(170,170,255,1)" stroke-width="200" fill="none" stroke-linecap="round" stroke-linejoin="miter" stroke-dasharray="427.95910482490103,427.95910482490103" style="opacity: 0; stroke-dashoffset: 0;"></path><path clip-path="url(#mask-39)" d="M 338.6 264.8 L 518 285 L 665 317 L 706 320 L 730 314" stroke="rgba(170,170,255,1)" stroke-width="200" fill="none" stroke-linecap="round" stroke-linejoin="miter" stroke-dasharray="396.79558170059755,396.79558170059755" style="opacity: 0; stroke-dashoffset: 0;"></path><path clip-path="url(#mask-40)" d="M 210.6 178.8 L 365 162 L 511 189 L 811 228 L 892 211" stroke="rgba(170,170,255,1)" stroke-width="200" fill="none" stroke-linecap="round" stroke-linejoin="miter" stroke-dasharray="689.0909979625375,689.0909979625375" style="opacity: 0; stroke-dashoffset: 0;"></path><path clip-path="url(#mask-41)" d="M 438.5 589 L 567 560 L 587 542 L 580 277 L 571 217 L 556 168 L 533 127 L 512 104 L 460 66 L 367 24 L 308 10" stroke="rgba(170,170,255,1)" stroke-width="200" fill="none" stroke-linecap="round" stroke-linejoin="miter" stroke-dasharray="840.9387478211779,840.9387478211779" style="opacity: 0; stroke-dashoffset: 0;"></path><path clip-path="url(#mask-42)" d="M 501 169 L 619 169 L 689 101 L 774 42 L 811 32 L 947 16" stroke="rgba(170,170,255,1)" stroke-width="200" fill="none" stroke-linecap="round" stroke-linejoin="miter" stroke-dasharray="494.32626349049264,494.32626349049264" style="opacity: 0; stroke-dashoffset: 0;"></path></g></g></svg>